<svg xmlns="http://www.w3.org/2000/svg" width="54" height="54" fill="none" viewBox="0 0 54 54"><g id="definer icon large"><path id="Vector 2712" stroke="#7B8CC7" stroke-linecap="round" stroke-linejoin="round" stroke-width="3.5" d="M52 23.2015V6.45262C52 4.78279 50.9439 3.27217 49.3289 2.89548C41.6855 1.10526 32.5813 1.97513 27 5.72255V23.1976"/><path id="Vector 2713" stroke="#7B8CC7" stroke-linecap="round" stroke-linejoin="round" stroke-width="3.5" d="M27 5.7214C21.4187 1.97398 12.3145 1.10411 4.67114 2.89821C3.05227 3.27489 2 4.78163 2 6.45535V38.4308C2 39.7511 3.29124 40.6947 4.57092 40.388C9.44681 39.2307 14.924 39.1531 19.7112 40.2249"/><path id="Vector" stroke="#7B8CC7" stroke-linecap="round" stroke-linejoin="round" stroke-width="3.5" d="M51.6641 52.0001L47.0889 47.3906"/><path id="Vector_2" stroke="#7B8CC7" stroke-linecap="round" stroke-linejoin="round" stroke-width="3.5" d="M39.1417 50.0586C45.9256 50.0586 49.7415 46.2141 49.7415 39.3794C49.7415 32.5447 45.9256 28.7002 39.1417 28.7002C32.3579 28.7002 28.542 32.5447 28.542 39.3794C28.542 46.2141 32.3579 50.0586 39.1417 50.0586Z"/></g></svg>